<?xml version="1.0" encoding="utf-8"?>
<!-- Generator: Adobe Illustrator 14.0.0, SVG Export Plug-In . SVG Version: 6.00 Build 43363)  -->
<!DOCTYPE svg PUBLIC "-//W3C//DTD SVG 1.1//EN" "http://www.w3.org/Graphics/SVG/1.1/DTD/svg11.dtd">
<svg version="1.1" id="Layer_11" xmlns="http://www.w3.org/2000/svg" xmlns:xlink="http://www.w3.org/1999/xlink" x="0px" y="0px"
	 width="221.807px" height="186.82px" viewBox="0 0 221.807 186.82" enable-background="new 0 0 221.807 186.82"
	 xml:space="preserve">
<g>
	<path fill="#FFA428" d="M30.851,54.031c-0.017-0.012-0.034-0.023-0.05-0.036c-2.365-1.669-1.287-5.147-0.592-7.512
		c4.989-16.444,9.394-27.047,10.747-32.693c1.009-3.547,0.035-4.625-1.601-5.981C36.678,5.582,29.794,1.669,27.183,0
		c-1.513,0.262-5.947,0.437-6.539,4.191c-0.973,7.512-6.816,44.379-6.816,44.379c-0.869,7.129,5.981,12.658,5.981,12.658
		l0.091,0.067C12.955,66.323,6.295,71.974,0.001,78.27c10.928,62.732,73.215,97.623,111,108.552
		c45.145-13.188,100.232-49.636,110.806-108.621C168.383,25.369,90.896,17.708,30.851,54.031z"/>
	<path fill="#000036" d="M5.69,79.662c57.804-56.829,149.619-58.775,210.344,0c-13.701,68.099-91.815,99.22-105.382,101.833
		C96.602,178.921,17.306,145.254,5.69,79.662z"/>
	<path fill="#3376BE" d="M17.724,77.298C44.575,54.483,79.493,41.98,114.236,42.05c32.866,0,71.401,14.866,95.459,40.193
		l-2.085,5.843C155.935,35.423,77.474,36.258,17.724,77.298z"/>
	<path fill="#8F182A" d="M56.221,72.346c-1.396-1.688-3.903-2.075-6.604-2.075c-2.817,0-7.514,1.564-7.514,1.564l10.441,10.517l0,0
		C54.246,79.912,55.688,76.655,56.221,72.346z"/>
	<path fill="#FCB02F" d="M22.906,6.417c1.237-3.888,2.816-3.547,4.435-3.46l-6.834,42.69c0.165,0.421-1.355,5.217,3.652,10.538
		c2.714,2.312,6.712-1.396,9.65,2.061c15.669,18.433,45.31,52.509,45.31,52.509c1.251,4.449-5.339,4.449-7.564,2.505L20.61,57.751
		c-3.338-3.65-4.169-7.374-4.067-10.121L22.906,6.417z"/>
	<polygon fill="#FFFFFF" points="36.469,20.764 26.667,7.408 33.79,29.059 	"/>
	<polygon fill="#FFFFFF" points="24.732,10.382 25.051,8.349 22.018,19.563 32.088,34.327 32.175,34.059 	"/>
	<path fill="#8C0026" d="M158.545,90.826c-9.496,0-29.81,3.095-40.17,9.702c0,0,8.139-1.354,13.354-1.354s7.722,1.146,7.722,3.024
		c0,1.879-3.236,8.034-36.103,8.242c-13.395,0-24.912-1.516-34.316-3.874L24.159,56.186c-5.008-5.32-3.487-10.116-3.652-10.538
		l6.834-42.69c-1.617-0.087-3.196-0.428-4.435,3.46l-6.364,41.212c-0.102,2.748,0.729,6.471,4.067,10.121l15.167,16.527
		c-2.017,0.89-5.21,2.562-7.653,5.071c-3.86,3.964-5.738,8.66-5.738,12.938c0,17.911,34.431,63.958,89.417,78.355
		c0,0,72.618-23.787,72.618-63.021C184.42,92.6,168.041,90.826,158.545,90.826z M39.913,87.697c0-2.316,1.763-4.36,3.071-5.566
		l21.192,23.093C48.482,100.426,39.913,93.243,39.913,87.697z"/>
	<path fill="#CE7328" d="M60.861,78.454c-2.015-2.667-3.975-5.257-4.5-5.933c-0.089-0.113-0.141-0.179-0.141-0.176l0,0
		c-0.532,4.309-1.976,7.565-3.676,10.006l0,0c-3.483,4.996-8.041,6.544-8.041,6.544c2.607,1.722,6.312,3.131,10.33,3.131
		c6.469,0,11.11-5.688,11.11-6.835C65.944,85.193,63.365,81.767,60.861,78.454z"/>
	<path fill="#FFA428" d="M59.541,76.707c-0.256,3.374-1.03,7.565-4.812,9.737c2.29,0.789,6.253-1.053,8.949-4.258
		C62.835,81.068,59.969,77.272,59.541,76.707z"/>
	<path fill="#CE7328" d="M158.545,90.826c-9.496,0-29.81,3.095-40.17,9.702c0,0,19.406-5.008,24.623-5.008
		c5.215,0,9.182,1.981,9.182,4.852c0,4.539-15.965,9.861-48.83,10.069c-13.395,0-73.87-2.975-73.087-24.207
		c0,0-2.088,1.097-2.088,5.374c0,14.694,41.579,36.952,85.453,37.09c-4.645,1.566-20.606,3.619-28.153,3.619
		c0,0-17.181,0.242-29.648-4.452c-0.235,0.233,13.72,16.625,52.271,21.214c-4.121,0.801-10.033,0.905-12.954,0.905
		c-28.589,0-47.208-15.755-46.884-15.44c15.393,14.922,37.089,29.174,63.542,36.1c0,0,72.617-23.786,72.617-63.021
		C184.42,92.6,168.041,90.826,158.545,90.826z"/>
	<path fill="#FFA428" d="M158.545,90.826c-4.228,0-8.426,0.541-8.426,0.541s14.373,0.362,14.373,6.867
		c0,10.328-25.563,19.929-61.144,19.929c0,0-5.999,0.104-7.629-0.562c0,0,7.943,4.524,32.357,4.524
		c16.381,0,28.172-3.546,36.937-9.39c-13.251,18.988-49.04,26.084-63.125,26.084c0,0,2.609,1.773,18.676,1.773
		c25.459,0,41.736-11.582,49.146-17.009c-9.287,21.076-56.656,33.91-56.656,33.91c35.269-2.087,58.324-19.614,65.57-30.896
		c3.609-5.833,5.795-12.173,5.795-18.979C184.42,92.6,168.041,90.826,158.545,90.826z"/>
	<circle fill="#FCB02F" cx="143.747" cy="69.828" r="2.712"/>
	<path fill="#8F182A" d="M168.178,68.569l2.436-1.392c0,0-24.902-14.017-57.662-13.98c-19.408,0-44.449,5.808-52.52,9.912
		c7.373-1.183,42.013-3.965,49.529-0.806c-9.741,0.18-24.767,5.325-34.156,14.61c8.973-3.999,29.006-8.031,42.082-5.459
		c-8.068,1.601-34.083,11.755-39.266,25.181c10.33-7.582,24.171-11.233,34.466-11.233c7.373,0,8.695,0.869,8.695,0.869
		c-2.539,2.018-7.859,6.053-11.443,10.713c14.4-6.4,31.301-10.887,47.406-10.887c16.762,0,30.744,5.146,36.726,9.077
		C191.62,87.28,177.638,73.194,168.178,68.569z M128.182,62.24c0,0,18.571,1.772,30.676,9.389
		c-5.113-1.25-17.217-2.085-17.217-2.085c-7.304,0-8.66,0.835-8.66,0.835c1.044-1.044,3.444-2.816,5.221-3.234
		C138.2,67.141,132.147,63.7,128.182,62.24z M135.068,77.784l6.364-3.233c0,0,15.128,2.399,23.528,7.095
		C164.961,81.644,144.72,77.627,135.068,77.784z"/>
	<path fill="#CE7328" d="M168.178,68.569l2.436-1.392c0,0-24.902-14.017-57.662-13.98c-19.408,0-44.449,5.808-52.52,9.912
		c7.373-1.183,40.205-13.912,60.761,0.903c-6.782,0.208-14.086,0.729-20.45,3.339c8.241-1.355,20.136,1.252,25.667,4.485
		c-8.067,1.602-25.25,6.47-30.989,13.355c4.591-2.607,14.815-3.965,21.286-3.965c4.066,0,8.66,0.417,10.224,1.46
		c-3.443,2.19-13.007,9.635-16.589,14.294c14.399-6.399,31.301-10.886,47.405-10.886c16.762,0,30.744,5.146,36.727,9.077
		C191.62,87.28,177.638,73.194,168.178,68.569z M128.182,62.24c0,0,18.571,1.772,30.676,9.389
		c-5.113-1.25-17.217-2.085-17.217-2.085c-7.304,0-8.66,0.835-8.66,0.835c1.044-1.044,3.444-2.816,5.221-3.234
		C138.2,67.141,132.147,63.7,128.182,62.24z M135.068,77.784l6.364-3.233c0,0,15.128,2.399,23.528,7.095
		C164.961,81.644,144.72,77.627,135.068,77.784z"/>
	<path fill="#FFA428" d="M168.178,68.569l2.436-1.392c0,0-24.902-14.017-57.662-13.98c-19.408,0-44.449,5.808-52.52,9.912
		c0,0,54.674-19.13,102.946,4.521l-2.748,1.565c11.06,3.999,25.771,13.598,33.841,25.979
		C191.62,87.28,177.638,73.194,168.178,68.569z"/>
	<path fill="#FFFFFF" d="M153.361,73.403l-4.714,2.6c5.055,1.178,11.697,3.062,16.313,5.644c0,0-10.981-2.18-20.625-3.266
		l-6.485,3.578c0,0,22.049-2.364,44.864,5.355C169.221,76.602,153.361,73.403,153.361,73.403z"/>
</g>
</svg>
